<?xml version="1.0" encoding="UTF-8" standalone="no"?>
<svg width="512" height="512" viewBox="0 0 512 512" fill="none" xmlns="http://www.w3.org/2000/svg">
  <!-- Gradient Background -->
  <rect width="512" height="512" rx="128" fill="url(#paint0_linear)"/>
  
  <!-- Quote Symbol -->
  <path d="M164 212C164 190.461 181.461 173 203 173H224C234.493 173 243 181.507 243 192V256C243 266.493 234.493 275 224 275H203C192.507 275 184 266.493 184 256V235H203V256H224V192H203C192.507 192 184 200.507 184 212H164Z" fill="white"/>
  <path d="M290 212C290 190.461 307.461 173 329 173H350C360.493 173 369 181.507 369 192V256C369 266.493 360.493 275 350 275H329C318.507 275 310 266.493 310 256V235H329V256H350V192H329C318.507 192 310 200.507 310 212H290Z" fill="white"/>
  
  <!-- Stylized Line/Wave -->
  <path d="M128 320C128 320 192 288 256 320C320 352 384 320 384 320" stroke="white" stroke-width="8" stroke-linecap="round"/>
  
  <!-- Gradient Definition -->
  <defs>
    <linearGradient id="paint0_linear" x1="0" y1="0" x2="512" y2="512" gradientUnits="userSpaceOnUse">
      <stop stop-color="#6B8EAE"/>
      <stop offset="1" stop-color="#4A617A"/>
    </linearGradient>
  </defs>
</svg>